<svg xmlns="http://www.w3.org/2000/svg" xmlns:svg="http://www.w3.org/2000/svg" id="svg8" width="613.247" height="344.892" version="1.1" viewBox="0 0 162.255 91.253"><metadata id="metadata5"/><g id="layer1" transform="translate(0.84726759,-206.27279)"><g id="g946"><g id="g1013"><g id="g1061" transform="matrix(1.0112434,0,0,1.0112434,-1.1339286,-2.8100596)"><g id="g1259" transform="matrix(1.0078603,0,0,1.0149998,-0.5006786,-3.6619918)"><path id="rect815-3-6-7-5-2" fill="#243a46" fill-opacity="1" stroke="none" stroke-dasharray="none" stroke-miterlimit="4" stroke-width="2.645" d="M 0.2834738,206.75818 H 160.73438 v 90.23816 H 0.2834738 Z" opacity=".378"/><path id="rect815-3-6" fill="#243a46" fill-opacity="1" stroke="none" stroke-dasharray="none" stroke-miterlimit="4" stroke-width="1.454" d="M 0.2834738,206.75818 H 160.73437 v 27.26443 c -18.02225,0.41563 -22.14557,0.3604 -61.623127,-1.48895 -17.057822,-1.01628 -82.639242,-1.76181 -98.8277692,1.48895 z" opacity=".16"/><path id="rect815-3-6-7" fill="#243a46" fill-opacity="1" stroke="none" stroke-dasharray="none" stroke-miterlimit="4" stroke-width="1.222" d="M 0.2834738,206.75818 H 160.73437 v 19.25837 c -38.76964,-1.85332 -59.67588,-0.95662 -98.228389,1.45365 -27.629738,2.24788 -34.404871,0.79182 -62.2225072,-1.45365 z" opacity=".175"/><path id="rect815-3-6-7-5" fill="#243a46" fill-opacity="1" stroke="none" stroke-dasharray="none" stroke-miterlimit="4" stroke-width="1.313" d="M 0.2834738,206.75818 H 160.73437 v 22.24273 c -38.76964,-2.14052 -64.961834,-7.2104 -103.514348,-4.42663 -32.122803,2.77107 -40.748021,4.02113 -56.9365482,6.67316 z" opacity=".102"/><path id="rect815-3-6-7-5-3" fill="#243a46" fill-opacity="1" stroke="none" stroke-dasharray="none" stroke-miterlimit="4" stroke-width="1.635" d="M 0.2834738,206.75818 H 160.73437 v 34.47835 c -38.76964,-3.31802 -70.115643,-4.69399 -108.668157,-0.37889 -32.122803,4.29543 -35.594212,-3.732 -51.7827392,0.37889 z" opacity="0"/><path id="rect815-3-6-7-5-3-5" fill="#243a46" fill-opacity="1" stroke="none" stroke-dasharray="none" stroke-miterlimit="4" stroke-width="1.635" d="M 0.2834738,206.75818 H 160.73437 v 34.47835 c -38.76964,-3.31802 -70.115643,-4.69399 -108.668157,-0.37889 -32.122803,4.29543 -35.594212,-3.732 -51.7827392,0.37889 z" opacity="0"/></g></g></g></g></g></svg>