<?xml version="1.0" encoding="UTF-8" standalone="no"?>
<!-- Created with Inkscape (http://www.inkscape.org/) -->

<svg
   xmlns:dc="http://purl.org/dc/elements/1.1/"
   xmlns:cc="http://creativecommons.org/ns#"
   xmlns:rdf="http://www.w3.org/1999/02/22-rdf-syntax-ns#"
   xmlns:svg="http://www.w3.org/2000/svg"
   xmlns="http://www.w3.org/2000/svg"
   xmlns:sodipodi="http://sodipodi.sourceforge.net/DTD/sodipodi-0.dtd"
   xmlns:inkscape="http://www.inkscape.org/namespaces/inkscape"
   width="26.458334mm"
   height="26.458334mm"
   viewBox="0 0 26.458334 26.458334"
   version="1.1"
   id="svg8"
   inkscape:version="0.92.2 (5c3e80d, 2017-08-06)"
   sodipodi:docname="maintenance-dark.svg">
  <defs
     id="defs2" />
  <sodipodi:namedview
     id="base"
     pagecolor="#ffffff"
     bordercolor="#666666"
     borderopacity="1.0"
     inkscape:pageopacity="0.0"
     inkscape:pageshadow="2"
     inkscape:zoom="3.959798"
     inkscape:cx="61.959319"
     inkscape:cy="29.970941"
     inkscape:document-units="mm"
     inkscape:current-layer="g4561"
     showgrid="false"
     inkscape:window-width="1918"
     inkscape:window-height="1028"
     inkscape:window-x="-7"
     inkscape:window-y="1060"
     inkscape:window-maximized="0"
     fit-margin-top="0"
     fit-margin-left="0"
     fit-margin-right="0"
     fit-margin-bottom="0" />
  <metadata
     id="metadata5">
    <rdf:RDF>
      <cc:Work
         rdf:about="">
        <dc:format>image/svg+xml</dc:format>
        <dc:type
           rdf:resource="http://purl.org/dc/dcmitype/StillImage" />
        <dc:title></dc:title>
      </cc:Work>
    </rdf:RDF>
  </metadata>
  <g
     inkscape:label="Layer 1"
     inkscape:groupmode="layer"
     id="layer1"
     transform="translate(-4.8499487,-6.2245581)">
    <g
       id="g4561"
       transform="translate(0.01071695)">
      <path
         inkscape:connector-curvature="0"
         id="rect4331-0-3-7"
         d="m 9.8104995,12.179698 h 2.8444265 v 3.869239 H 9.8104995 Z"
         style="fill:#ffffff;fill-opacity:1;stroke:none;stroke-width:0.10183417;stroke-opacity:1" />
      <circle
         r="13.229167"
         cy="19.453726"
         cx="18.079115"
         id="path99-9"
         style="fill:#ffffff;fill-opacity:1;stroke:none;stroke-width:0.03428327;stroke-opacity:1" />
      <path
         sodipodi:nodetypes="cccccccccccccc"
         inkscape:connector-curvature="0"
         id="path4549"
         d="m 23.046361,24.587969 -7.820715,7.784353 c 0.37327,0.07173 0.792551,0.158281 1.227677,0.208172 l 7.08219,-7.093853 2.481102,1.526607 -5.437654,5.437654 C 9.6741431,34.252108 3.4409554,24.400538 5.0914899,16.913317 l 4.6118013,-4.611801 2.2961178,0.202526 1.227187,3.155892 2.942924,1.699098 0.802257,-0.802257 5.918865,3.681379 z"
         style="fill:#93a7ac;stroke:none;stroke-width:0.26458332px;stroke-linecap:butt;stroke-linejoin:miter;stroke-opacity:1" />
      <g
         transform="matrix(0.96307651,0,0,0.96307651,1.2437985,0.59700235)"
         id="g4541"
         style="fill:#1c2224">
        <path
           style="fill:#1c2224;stroke:none;stroke-width:0.26458332px;stroke-linecap:butt;stroke-linejoin:miter;stroke-opacity:1"
           d="m 27.717508,14.634528 -3.401786,-2.456845 -2.385974,2.409598 c -0.470795,0.471737 -1.126244,0.681367 -1.937128,0.425223 -1.26001,-0.430592 -1.84662,0.03668 -2.456845,0.472471 l -1.2048,1.086681 1.271863,1.082874 c 0.887507,0.821929 1.570712,1.638795 0.570771,2.531523 l -4.110491,3.283668 c 0.166592,1.039741 0.967366,1.29895 2.362351,0.826823 0.299954,0.903347 1.179064,0.849827 2.196987,0.566965 0.734546,0.541697 1.494002,0.622558 2.291481,0 0.474548,0.185473 1.026109,0.650393 1.724516,0.04725 l 4.015997,-4.015997 c 0.783651,-0.965919 0.651852,-2.204389 0.47247,-3.472657 -0.124518,-0.853584 0.117655,-1.823876 0.590588,-2.787577 z"
           id="path4529"
           inkscape:connector-curvature="0"
           sodipodi:nodetypes="cccccccccccccccc" />
        <path
           style="fill:#1c2224;stroke:none;stroke-width:0.26458332px;stroke-linecap:butt;stroke-linejoin:miter;stroke-opacity:1"
           d="m 23.146359,25.843885 2.01981,-1.866258 1.464658,1.181176 c 0.371862,0.260947 0.517867,0.587575 0.165364,1.063058 l -0.696894,0.921317 c -0.39377,0.536975 -0.806813,0.405449 -1.275669,0.05906 z"
           id="path4531"
           inkscape:connector-curvature="0"
           sodipodi:nodetypes="ccccccc" />
        <path
           style="fill:#1c2224;stroke:none;stroke-width:0.26458332px;stroke-linecap:butt;stroke-linejoin:miter;stroke-opacity:1"
           d="m 16.158791,20.41355 c -0.457453,0.286684 -0.657023,0.129609 -0.902035,-0.09187 l -2.706104,-2.054635 c -1.409051,0.87196 -2.520341,0.67825 -3.5079127,0.04176 l 2.5808217,-3.182178 c 0.221562,-0.368882 0.05202,-0.637713 -0.200452,-0.88533 L 8.7838221,12.153254 c 2.9175249,-1.426235 6.2352639,0.289514 5.4289119,4.109269 l 2.455539,1.779013 c 0.806658,0.57349 0.778099,1.110414 0.534539,1.394812 z"
           id="path4533"
           inkscape:connector-curvature="0"
           sodipodi:nodetypes="ccccccccccc" />
        <path
           style="fill:#1c2224;stroke:none;stroke-width:0.26458332px;stroke-linecap:butt;stroke-linejoin:miter;stroke-opacity:1"
           d="m 7.3481351,14.079376 2.4623642,1.969561 -1.4347415,1.774765 C 7.5928044,16.979027 6.9944746,15.822528 7.3481351,14.079376 Z"
           id="path4535"
           inkscape:connector-curvature="0"
           sodipodi:nodetypes="cccc" />
      </g>
    </g>
  </g>
</svg>
